<?xml version="1.0" encoding="utf-8"?>
<!-- Generator: Adobe Illustrator 16.0.4, SVG Export Plug-In . SVG Version: 6.00 Build 0)  -->
<!DOCTYPE svg PUBLIC "-//W3C//DTD SVG 1.1//EN" "http://www.w3.org/Graphics/SVG/1.1/DTD/svg11.dtd">
<svg version="1.1" id="Layer_1" xmlns="http://www.w3.org/2000/svg" xmlns:xlink="http://www.w3.org/1999/xlink" x="0px" y="0px"
	 width="31.541px" height="31.451px" viewBox="70.431 18.631 31.541 31.451" enable-background="new 70.431 18.631 31.541 31.451"
	 xml:space="preserve">
<title>search icon</title>
<g>
	<title>Layer 1</title>
	<path id="path12423" fill="#999999" d="M73.978,22.171c-4.721,4.721-4.732,12.454-0.011,17.174c4,4,10.167,4.609,14.828,1.829
		l8.328,8.099c1.146,1.112,2.955,1.071,4.049-0.092c1.095-1.164,1.066-2.994-0.081-4.106l-8.202-7.949
		c2.875-4.674,2.292-10.915-1.749-14.955C86.42,17.451,78.698,17.451,73.978,22.171L73.978,22.171z M77.44,25.634
		c2.847-2.848,7.391-2.848,10.238,0c2.847,2.848,2.847,7.391,0,10.238c-2.848,2.848-7.391,2.848-10.238,0
		C74.592,33.024,74.592,28.481,77.44,25.634z"/>
</g>
</svg>
